# xmcd CD database file
#
# Track frame offsets:
#	150
#	12589
#	27030
#	40376
#	69136
#	89005
#	101817
#	110198
#	124505
#	137919
#	148369
#	156666
#	179282
#	203565
#	214370
#	225711
#
# Disc length: 3144 seconds
#
# Revision: 0
# Processed by: cddbd v1.5PL3 Copyright (c) Steve Scherf et al.
# Submitted via: CDex 1.50
#
DISCID=f40c4610
DTITLE=Fats Domino - Rock Right Now With The Fat Man  CD3
DYEAR=2001
DGENRE=Blues
TTITLE0=Lazy Lady
TTITLE1=Your Cheatin´ Heart
TTITLE2=You Know I Love You
TTITLE3=All Ba Myself
TTITLE4=Deep In The Heart Of Texas (live)
TTITLE5=When My Dreamboat Comes Home
TTITLE6=I Can´t Go On
TTITLE7=Lowdy Miss Clowdy (live)
TTITLE8=Heart Break Hill (live)
TTITLE9=Go To The Mardi Gras
TTITLE10=My Toot Toot (live)
TTITLE11=Another Mule
TTITLE12=Sentimental Journey
TTITLE13=Kansas City (live)
TTITLE14=I Hear You Knocking
TTITLE15=Fats Boogie (live)
EXTD=YEAR: 2001
EXTT0=
EXTT1=
EXTT2=
EXTT3=
EXTT4=
EXTT5=
EXTT6=
EXTT7=
EXTT8=
EXTT9=
EXTT10=
EXTT11=
EXTT12=
EXTT13=
EXTT14=
EXTT15=
PLAYORDER=
